<?xml version="1.0" encoding="utf-8"?>

<!DOCTYPE svg PUBLIC "-//W3C//DTD SVG 1.1//EN" "http://www.w3.org/Graphics/SVG/1.1/DTD/svg11.dtd">
<svg version="1.1" id="Layer_1" xmlns="http://www.w3.org/2000/svg" xmlns:xlink="http://www.w3.org/1999/xlink" x="0px" y="0px"
	 viewBox="0 0 2614.456 887.722" enable-background="new 0 0 2614.456 887.722" xml:space="preserve">
<path d="M377.042,497.105l26.05-392.779l103.862-29.771l5.751,15.562l4.398-17.93l50.408-14.209l169.494,208.738l601.517-1.353
	l293.992-68.677C1856.476,90.117,2045.075-8.039,2119.005,25.5c0,0,5.718,2.144,11.206,5.317c7.667,4.432,16.072,7.426,24.761,9.133
	c21.251,4.176,57.837,11.612,82.78,18.027c27.196,6.995,60.219,7.443,112.319-1.015s156.976-12.856,196.559,6.09l40.597,1.353
	c-88.854,97.694-375.323,193.44-634.641,289.454c-6.233,2.308-11.74,6.213-15.989,11.323l-45.276,54.449
	c0,0-60.088,38.562-105.215,52.1c-54.13,16.239-223.624,63.941-223.624,63.941L1387.915,786.7l-63.603,5.075l-73.413,15.562
	l-134.986-17.93l-14.209,5.751L985.663,748.47l-14.209,7.105l-164.758-37.214l7.781-19.284l-16.916,4.398L707.91,825.944
	l-149.534,42.966l-157.653-42.627c0,0,48.717-75.782,78.826-95.742c0,0,19.284-28.08,44.657-32.14c0,0,7.781-4.736-0.338-6.09
	c-8.119-1.353-30.448-10.826-38.906-9.811c-8.458,1.015-71.045,7.781-81.871,1.015c-10.826-6.766,30.11-27.742,30.11-27.742
	s33.518-10.97,34.042-23.366c0.046-1.097-0.909-1.979-2.006-1.934l-63.837,2.632c0,0-74.428,5.075-112.319-1.353
	c-37.891-6.428-70.707-11.503-70.707-11.503l-153.593-3.721l-37.553-81.871l152.24-45.334L377.042,497.105z"/>
</svg>
