<?xml version="1.0" encoding="utf-8"?>

<!DOCTYPE svg PUBLIC "-//W3C//DTD SVG 1.1//EN" "http://www.w3.org/Graphics/SVG/1.1/DTD/svg11.dtd">
<svg version="1.1" id="Layer_1" xmlns="http://www.w3.org/2000/svg" xmlns:xlink="http://www.w3.org/1999/xlink" x="0px" y="0px"
	 viewBox="0 0 2603.007 841.165" enable-background="new 0 0 2603.007 841.165" xml:space="preserve">
<path d="M2581.504,633.555l-46.644-5.125l-47.075-4.401c0,0-97.696-54.384-331.934-104.726c0,0-7.723-2.833-13.988-10.091
	l-29.45-7.828l-16.369,3.047c0,0-6.323,1.235-14.966-4.498c0,0-81.69-60.195-163.556-92.267s-229.953-16.131-430.356,33.357
	c0,0-364.708,32.985-416.676,23.221c0,0,3.265-2.026-1.923-4.673s-32.031-12.549-32.031-12.549l-0.386,5.259l-5.273-0.198
	c0,0,0.657-6.372-3.1-6.648c-3.756-0.276-5.96,1.451-6.452,5.569l-38.518-2.64l0.497-6.762l-5.823-0.428l-0.497,6.762l-74.086-4.307
	L879.844,410.4c0,0-18.195-6.812-16.835-2.18c1.359,4.632,10.24,32.854,10.24,32.854L752.66,414.279l-3.699-8.769
	c0,0-13.363-0.604-18.779,3.72l-131.949-28.951L322.461,126.623l23.644-0.53c0,0,4.541-2.688,0.963-5.406
	c-1.544-1.173-31.239,1.105-31.239,1.105L225.4,36.596l-72.332-2.479l-9.063-10.296l-9.781-0.529l-13.243,13.19l-9.781-0.529
	l-9.218-13.329l-1.466,1.97l6.511,11.62l-83.78-0.865l-1.743,26.309l15.764,1.346l150.325,321.3l-7.507-0.25
	c-3.646-0.122-6.692,2.755-6.779,6.402l-0.838,35.226l5.447,0.4l-0.45,3.555l-4.132-0.303l-0.69,9.391l13.46-0.711l0.088,29.654
	c0,0,51.884,8.342,145.115-6.339l-0.864,9.19l-77.369,6.971c0,0-31.964,1.896-45.906,7.187c-5.378,2.041-10.777,4.022-16.282,5.689
	L88.2,521.465l-9.446,0.062l-2.516,36.828l-32.554,1.008L35.13,562.7l41.83,3.827c0,0-4.867,58.56,2.443,67.028l33.083,9.794
	l4.41,22.229l-4.019,3.293l-19.791-0.509l0.155,3.033l25.279,0.346l2.927,19.288c0,0,0.6,2.121-2.419,2.088
	c-3.019-0.033-21.014,0.723-21.014,0.723l0.21,2.281l24.729,0.116l34.141,10.816c0,0,111.084,1.926,124.21,0.623
	c13.125-1.302,36.773-17.316,36.773-17.316l87.585,10.775l6.334,6.319l0.991-5.781l23.506,1.348c0,0,28.766,14.576,98.2,10.233
	l-0.51,40.374l11.847,0.681l-1.331,28.417l176.577,35.816l54.899-96.997l615.826,17.652c0,0,242.772,16.724,380.122-7.005
	c3.232-0.558,5.749-3.093,6.292-6.328c1.475-8.793,4.044-27.127,3.525-45.654c-0.313-11.164,27.765-28.364,40.377-27.816
	c0,0-5.641-10.612-5.744-19.494c0,0,340.405,18.954,345.871,16.523l-0.869,11.833l19.158,1.407l0.855-11.645
	c0,0,204.157,12.537,306.408-16.966l46.155,1.501L2581.504,633.555z"/>
</svg>
