<?xml version="1.0" encoding="utf-8"?>
<!-- Generator: Adobe Illustrator 16.0.0, SVG Export Plug-In . SVG Version: 6.00 Build 0)  -->
<!DOCTYPE svg PUBLIC "-//W3C//DTD SVG 1.1//EN" "http://www.w3.org/Graphics/SVG/1.1/DTD/svg11.dtd">
<svg version="1.1" id="Layer_1" xmlns="http://www.w3.org/2000/svg" xmlns:xlink="http://www.w3.org/1999/xlink" x="0px" y="0px"
	 width="708.167px" height="229.167px" viewBox="0 0 708.167 229.167" enable-background="new 0 0 708.167 229.167"
	 xml:space="preserve">
<path fill="#B3B3B3" stroke="#000000" stroke-width="2" stroke-linecap="round" stroke-linejoin="round" d="M301.581,112.613
	l-32.957,3.956l-90.961-19.774c0,0-111.082-87.826-114.689-89.641c-2.571-2.304-2.571-2.304-7.909-1.319
	C50.104,7.938,4.97,21.655,4.97,21.655l5.273,10.546l6.591-1.319l48.776,83.051l-5.273,1.318l1.317,7.909h7.909l5.273,14.499
	l47.458-6.586l3.957,6.586c-22.079,3.654-54.376,9.157-73.827,19.776c-3.353,2.416-3.867,4.476-3.953,6.594
	c-0.945,3.03-1.975,8.695,0,15.818c-7.639,7.81-31.638,30.318-31.638,30.318h29.001l25.047-14.499l26.365,5.271l79.096-1.319
	l2.636,19.777l50.096,6.588l1.319-7.907l18.455,2.635l11.866-26.365c0,0,245.634-22.139,249.152-23.731
	c2.662-2.525,12.445-14.37,9.227-32.956c26.906-2.525,137.621-8.705,163.47-23.726l22.406-2.636l-22.406-1.319
	c-14.521-5.742-66.53-18.617-116.008-22.409c2.104,3.792-1.503,5.337-10.547,5.273c-8.464,1.094-66.138,1.094-79.099,2.636
	c-12.786,0.517-54.498,6.182-75.14,7.909l0,0l-58.006,5.273"/>
<polygon fill="#FFFFFF" stroke="#000000" stroke-width="2" stroke-linecap="round" stroke-linejoin="round" points="
	507.229,170.614 513.822,178.527 505.914,181.161 498.003,171.934 507.229,170.614 "/>
<polygon fill="#FFFFFF" stroke="#000000" stroke-width="2" stroke-linecap="round" stroke-linejoin="round" points="
	490.096,171.934 480.865,179.847 475.167,173.917 490.096,171.934 "/>
<path d="M461.092,96.795c-1.088-5.434-0.959-12.643,2.636-14.502l-5.274,1.319c-2.57,2.986-3.342,9.422-2.634,13.183H461.092
	L461.092,96.795z"/>
<path fill="#B3B3B3" d="M479.55,95.479c-3.839-5.92-11.563-15.06-15.822-13.186l-5.274,1.319
	c5.154-0.747,11.592,4.272,14.505,11.866H479.55L479.55,95.479z"/>
<path fill="#FFFFFF" stroke="#828282" stroke-width="2" stroke-linecap="round" stroke-linejoin="round" d="M520.414,94.159
	c0,0,0.096-4.986,0-6.59c0.096-0.457-0.933-2.001-2.634-2.639c-2.419,0.381-9.759-2.064-10.552-5.273c0,0-1.008,1.534-1.314,3.956
	c-0.466,1.441,0,10.546,0,10.546H520.414L520.414,94.159z"/>
<path fill="#FFFFFF" stroke="#7A7A7A" stroke-width="2" stroke-linecap="round" stroke-linejoin="round" d="M505.914,94.159v-6.59
	c0,0-12.439,0.832-14.504,1.317c-1.281-0.485-4.242,0.544-3.953,1.316c-0.547,2.06-1.319,3.957-1.319,3.957H505.914L505.914,94.159z
	"/>
<path stroke="#000000" stroke-width="2" stroke-linecap="round" stroke-linejoin="round" d="M217.212,186.438
	c0.783-7.268,1.175-15.361-1.32-21.097l-7.909,1.32c2.164,5.188,1.901,13.023,1.317,21.093L217.212,186.438L217.212,186.438z"/>
<path opacity="0.5" fill="#707070" stroke="#000000" stroke-width="0.75" d="M401.771,103.388
	c20.642-1.727,62.354-7.392,75.14-7.909c12.961-1.542,70.635-1.542,79.099-2.636c9.044,0.063,12.65-1.481,10.547-5.273
	c-9.741-8.566-26.723-18.414-40.87-18.458C489.25,69,415.202,98.571,401.771,103.388L401.771,103.388z"/>
<path fill="none" stroke="#000000" stroke-width="2" stroke-linecap="round" stroke-linejoin="round" d="M617.964,94.159
	c5.151,6.857,4.764,24.624,0,34.274"/>
<line fill="none" stroke="#000000" stroke-width="2" stroke-linecap="round" stroke-linejoin="round" x1="617.964" y1="111.297" x2="627.196" y2="111.297"/>
<polyline fill="none" stroke="#000000" stroke-width="2" stroke-linecap="round" stroke-linejoin="round" points="16.834,30.882 
	39.244,25.608 103.84,107.341 "/>
<path fill="none" stroke="#000000" stroke-width="2" stroke-linecap="round" stroke-linejoin="round" d="M177.663,96.795
	c-3.972-0.799-112.052,17.138-112.052,17.138"/>
<polyline fill="none" stroke="#000000" stroke-width="2" stroke-linecap="round" stroke-linejoin="round" points="107.793,79.657 
	124.931,78.34 128.888,80.977 107.793,82.293 "/>
<polyline fill="none" stroke="#000000" stroke-width="2" stroke-linecap="round" stroke-linejoin="round" points="111.75,88.886 
	130.205,87.569 134.161,91.521 113.066,92.842 "/>
<path fill="none" stroke="#000000" stroke-width="2" stroke-linecap="round" stroke-linejoin="round" d="M126.252,137.658
	c9.333-2.012,120.047-19.52,141.053-21.089"/>
<path fill="#949494" d="M532.349,93.409c3.132-0.609,8.902-2.802,9.228-7.409c0.341-4.833-0.174-10.852-9.228-15.819l5.272,1.317
	c8.416,4.68,13.229,11.084,13.18,14.502s-6.823,6.8-10.547,7.409H532.349z"/>
<path fill="none" stroke="#000000" stroke-width="2" stroke-linecap="round" stroke-linejoin="round" d="M519.094,137.658
	c-25.881,0.955-69.985,6.951-85.687,18.457c-5.329,3.219-3.045,5.843,1.319,3.955c18.067-5.371,57.203-11.55,84.367-11.866"/>
<path fill="none" stroke="#000000" stroke-width="2" stroke-linecap="round" stroke-linejoin="round" d="M487.457,146.891
	c3.958,2.327,11.512,0.412,14.499-1.319"/>
<path fill="none" stroke="#000000" stroke-width="2" stroke-linecap="round" stroke-linejoin="round" d="M48.473,179.847
	c0.086,3.304,1.501,6.91,3.953,9.228c5.016,3.217,12.741,5.663,18.458,6.592"/>
<path fill="none" stroke="#000000" stroke-width="2" stroke-linecap="round" stroke-linejoin="round" d="M53.745,174.575
	c-0.314-7.649-0.971-13.513-1.32-13.186c-1.059-0.307-1.542,5.572-1.316,13.186c-0.014,6.865,0.643,12.723,1.316,13.18
	C53.16,187.276,53.643,181.401,53.745,174.575L53.745,174.575z"/>
<path fill="none" stroke="#000000" stroke-width="2" stroke-linecap="round" stroke-linejoin="round" d="M84.065,145.571
	c8.859,13.468,13.504,31.223,1.316,52.728"/>
<path fill="none" stroke="#000000" stroke-width="2" stroke-linecap="round" stroke-linejoin="round" d="M97.248,200.938
	c10.093-19.488,15-38.577,1.319-58.006"/>
<polygon fill="none" stroke="#000000" stroke-width="2" stroke-linecap="round" stroke-linejoin="round" points="288.398,178.527 
	309.49,177.208 310.807,182.48 289.716,183.8 288.398,178.527 "/>
<path fill="none" stroke="#000000" stroke-width="2" stroke-linecap="round" stroke-linejoin="round" d="M573.144,132.386
	c8.131-6.008,15.822-13.18,15.822-13.18v-1.319c-20.307-2.837-32.151-2.837-38.229-2.636
	c-24.819-0.201-108.884,12.173-125.24,14.501l-58.002-15.819l-60.64,6.637l-61.961,42.14
	c97.701-9.555,174.943-26.031,203.013-29.004c27.546-3.207,110.344-17.455,139.92-14.999"/>
<path fill="none" stroke="#000000" stroke-width="2" stroke-linecap="round" stroke-linejoin="round" d="M281.807,135.024
	c-15.425,1.137-123.049,7.833-155.555,25.046"/>
<path fill="none" stroke="#000000" stroke-width="2" stroke-linecap="round" stroke-linejoin="round" d="M168.434,167.981
	c18.646,1.139,64.992-4.013,76.459-5.272"/>
<path fill="none" stroke="#000000" stroke-width="2" stroke-linecap="round" stroke-linejoin="round" d="M343.765,108.661
	c-3.229,0.466-35.929,3.041-42.184,3.953"/>
<polygon fill="#A6A6A6" stroke="#000000" stroke-width="2" stroke-linecap="round" stroke-linejoin="round" points="
	264.668,185.119 248.85,220.711 193.481,210.165 196.119,187.755 264.668,185.119 "/>
<polygon fill="#A6A6A6" stroke="#000000" stroke-width="2" stroke-linecap="round" stroke-linejoin="round" points="
	194.801,199.618 193.481,210.165 230.395,218.076 229.075,225.983 178.979,219.396 176.344,199.618 194.801,199.618 "/>
<polygon fill="#A6A6A6" stroke="#000000" stroke-width="2" stroke-linecap="round" stroke-linejoin="round" points="
	147.343,177.208 184.256,161.39 122.295,161.39 78.792,171.934 147.343,177.208 "/>
<path fill="#B3B3B3" stroke="#000000" stroke-width="0.75" d="M295,115.083l-3.167-8.333l6-0.333
	c5.333,1.667,8.167,7.167,8.167,7.167"/>
<path fill="#B3B3B3" stroke="#000000" stroke-width="0.75" stroke-linecap="round" stroke-linejoin="round" d="M404.854,108.407
	l-6.973,0.507c-0.642,0.065-1.215-0.4-1.279-1.042l0,0c-0.065-0.641,0.401-1.214,1.042-1.279l6.974-0.507
	c0.641-0.065,1.715,0.4,1.78,1.042C406.398,107.128,405.495,108.342,404.854,108.407z"/>
<path fill="#B3B3B3" stroke="#000000" stroke-width="1.25" stroke-linecap="round" stroke-linejoin="round" d="M394.278,111.851
	l-98.47,9.806c-1.922,0.209-2.357-3.103-2.357-3.103c-0.208-1.922-0.318-3.649,1.603-3.857l98.47-9.806
	c1.923-0.208,3.738,1.346,3.857,3.603S396.2,111.642,394.278,111.851z"/>
<path fill="#B3B3B3" stroke="#000000" stroke-width="0.75" d="M306.667,117.75c0,0,2.833,3.5,0,5.5c-4.5,0.833-8,0.833-8,0.833
	l-1.5-5.5L306.667,117.75z"/>
<polyline fill="none" stroke="#000000" stroke-width="0.75" stroke-linecap="round" stroke-linejoin="round" points="
	296.333,121.75 295,124.417 298.667,124.083 297.833,121.583 295.809,121.656 "/>
<line fill="none" stroke="#000000" stroke-width="0.75" x1="293.833" y1="106.75" x2="297" y2="114.583"/>
<line fill="none" stroke="#000000" stroke-width="0.75" x1="298.833" y1="118.75" x2="300" y2="124.083"/>
<polygon fill="#B3B3B3" stroke="#000000" stroke-width="0.75" stroke-linecap="round" stroke-linejoin="round" points="
	391.5,105.25 385.75,100.25 386,105.75 "/>
<polygon fill="#B3B3B3" stroke="#000000" stroke-width="0.75" stroke-linecap="round" stroke-linejoin="round" points="
	392.25,108.5 390.5,114.5 387.75,108.75 "/>
</svg>
